<?xml version="1.0" encoding="UTF-8"?>
<svg id="_Шар_2" data-name="Шар 2" xmlns="http://www.w3.org/2000/svg" viewBox="0 0 280.75 266.38">
  <defs>
    <style>
      .cls-1 {
        fill: none;
        stroke: #000;
        stroke-miterlimit: 10;
        stroke-width: 10px;
      }
    </style>
  </defs>
  <g id="_Шар_1-2" data-name="Шар 1">
    <g>
      <path class="cls-1" d="M157.66,20.96h6.39c23.79,0,43.08,19.29,43.08,43.08v23.75"/>
      <path class="cls-1" d="M207.13,136.61v81.69c0,23.79-19.29,43.08-43.08,43.08H48.09c-23.8,0-43.09-19.29-43.09-43.08V64.04c0-23.79,19.29-43.08,43.09-43.08h6.38"/>
      <path class="cls-1" d="M157.66,20.96v3.72c0,7.93-6.43,14.36-14.36,14.36h-74.47c-7.93,0-14.36-6.43-14.36-14.36v-5.32c0-7.93,6.43-14.36,14.36-14.36h74.47c7.93,0,14.36,6.43,14.36,14.36v1.6Z"/>
      <rect class="cls-1" x="48.35" y="91.17" width="115.43" height="2.13"/>
      <rect class="cls-1" x="48.35" y="126.28" width="115.43" height="2.13"/>
      <rect class="cls-1" x="48.35" y="161.38" width="115.43" height="2.13"/>
      <rect class="cls-1" x="48.35" y="196.49" width="115.43" height="2.13"/>
      <path class="cls-1" d="M183.88,132.33c-2.52-4.93-2.17-11.08,1.4-15.78l21.85-28.76,41.86-55.1c4.98-6.55,14.32-7.83,20.87-2.85,3.86,2.93,5.89,7.37,5.89,11.87,0,3.14-.99,6.31-3.04,9l-63.71,83.86c-.57.75-1.19,1.43-1.87,2.04-3.55,3.22-8.39,4.47-12.96,3.55"/>
      <path class="cls-1" d="M183.88,132.33c-3.57-1.75-8.03.48-8.56,4.65l-1.33,10.46c-.58,4.58,4.02,8.07,8.28,6.28l9.72-4.08c3.87-1.62,4.82-6.5,2.18-9.48-.25-.3-.55-.58-.88-.83l-8.39-6.37c-.33-.25-.67-.46-1.02-.63Z"/>
    </g>
  </g>
</svg>